<?xml version="1.0" encoding="UTF-8" standalone="no"?>
<svg width="60px" height="93px" viewBox="0 0 60 93" version="1.1" xmlns="http://www.w3.org/2000/svg" xmlns:xlink="http://www.w3.org/1999/xlink" xmlns:sketch="http://www.bohemiancoding.com/sketch/ns">
    <!-- Generator: Sketch 3.5.2 (25235) - http://www.bohemiancoding.com/sketch -->
    <title>Page 1</title>
    <desc>Created with Sketch.</desc>
    <defs>
        <path id="path-1" d="M0,0.065060241 L59.9478072,0.065060241 L59.9478072,92.2409639 L0,92.2409639"></path>
        <path id="path-3" d="M0,0.065060241 L59.9478072,0.065060241 L59.9478072,92.2409639 L0,92.2409639"></path>
    </defs>
    <g id="Page-1" stroke="none" stroke-width="1" fill="none" fill-rule="evenodd" sketch:type="MSPage">
        <g id="Artboard-1" sketch:type="MSArtboardGroup" transform="translate(-107.000000, -37.000000)">
            <g id="Page-1" sketch:type="MSLayerGroup" transform="translate(107.000000, 37.000000)">
                <path d="M5.63346506,53.4551422 L29.973947,91.5904193 L53.0171277,54.9873831" id="Fill-1" fill="#E9AFAB" sketch:type="MSShapeGroup"></path>
                <g id="Group-34">
                    <path d="M29.973947,92.2409639 C29.7518747,92.2409639 29.5451277,92.127759 29.4255614,91.9403855 L5.08507952,53.8051084 C4.89177831,53.5023614 4.9805494,53.1 5.28344096,52.9066988 C5.58633253,52.7135422 5.9885494,52.8023133 6.1818506,53.1052048 L29.970188,90.3751807 L52.4664289,54.6407711 C52.6579952,54.3365783 53.0596337,54.2453494 53.3636819,54.4367711 C53.6678747,54.6281928 53.7591036,55.0298313 53.5676819,55.3340241 L30.5245012,91.9369157 C30.4058024,92.1255904 30.1987663,92.240241 29.9759711,92.2409639 L29.973947,92.2409639 Z" id="Fill-2" fill="#221F20" sketch:type="MSShapeGroup"></path>
                    <path d="M4.51285301,24.1855952 C4.51285301,24.1855952 0.0552144578,20.0460289 5.99752771,7.63557108 C6.38788916,6.48429398 11.3772867,9.83966747 17.5155036,15.6952337" id="Fill-4" fill="#FACBC5" sketch:type="MSShapeGroup"></path>
                    <path d="M3.99172048,24.7481639 L5.03499759,23.6230554 L4.51278072,24.1856096 L5.04222651,23.6289831 C5.00420241,23.5896578 1.1756241,19.6497542 6.57533494,8.20869398 C7.64723855,8.49611566 11.372588,10.8982843 16.9859855,16.2507181 L18.0448771,15.1409349 C16.4592867,13.6254651 8.42203373,6.06546506 6.05109398,6.6825253 C5.67591325,6.77259759 5.39239518,7.03124819 5.26993735,7.38994699 C-0.811171084,20.0769831 3.79364819,24.5628145 3.99172048,24.7481639" id="Fill-6" fill="#010201" sketch:type="MSShapeGroup"></path>
                    <path d="M55.1252096,24.1719759 C55.1252096,24.1719759 59.5828482,20.0322651 53.6408241,7.62195181 C53.2503181,6.4706747 48.2609205,9.82590361 42.1227036,15.6814699" id="Fill-8" fill="#FACBC5" sketch:type="MSShapeGroup"></path>
                    <path d="M55.6464867,24.7344723 L54.6032096,23.6093639 L55.1252819,24.1719181 L54.5959807,23.6152916 C54.6338602,23.5759663 58.4627277,19.6360627 53.0628723,8.19500241 C51.9911133,8.4824241 48.2656193,10.8844482 42.6520771,16.2370265 L41.5934747,15.1272434 C43.1790651,13.6117735 51.2161735,6.05177349 53.5872578,6.66883373 C53.9624386,6.75890602 54.2459566,7.01755663 54.3682699,7.37625542 C60.4492337,20.0632916 55.8447036,24.5491229 55.6464867,24.7344723" id="Fill-10" fill="#010201" sketch:type="MSShapeGroup"></path>
                    <path d="M15.3418843,14.2574892 C19.5962458,11.9550795 24.5254988,10.6384048 29.7799084,10.6384048 C45.8455952,10.6384048 58.8692096,22.944188 58.8692096,38.1236096 C58.8692096,53.3033205 45.8455952,65.6091036 29.7799084,65.6091036 C13.7143663,65.6091036 0.690607229,53.3033205 0.690607229,38.1236096 C0.690607229,29.7515133 4.65234217,22.2533928 10.9011614,17.2122361" id="Fill-12" fill="#FACBC5" sketch:type="MSShapeGroup"></path>
                    <g id="Group-16">
                        <mask id="mask-2" sketch:name="Clip 15" fill="white">
                            <use xlink:href="#path-1"></use>
                        </mask>
                        <g id="Clip-15"></g>
                        <path d="M30.7380723,1.61125301 C31.7066024,2.20373494 32.6125301,2.91968675 32.9692048,4.04277108 C33.4580241,5.58238554 31.8268916,6.60281928 30.5836627,6.95587952 C30.0598554,7.10479518 29.6044337,6.95139759 29.121253,6.79250602 C28.280241,6.51578313 28.6831807,5.28253012 29.5228916,5.70455422 C31.1882892,6.54093976 29.8373494,8.97289157 28.9214458,9.75375904 C28.0840482,10.4675422 29.209012,11.7438795 30.0422169,11.0331325 C32.0097831,9.35689157 33.0057831,5.56474699 30.1752289,4.14325301 C28.2176386,3.15939759 25.9828916,5.20561446 26.9716627,7.21510843 C28.1911807,9.69303614 32.0089157,8.60681928 33.5262651,7.24561446 C36.1455904,4.89563855 34.0784096,1.66171084 31.6867952,0.198578313 C30.7519518,-0.372939759 29.8027952,1.03901205 30.7380723,1.61125301" id="Fill-14" fill="#010201" sketch:type="MSShapeGroup" mask="url(#mask-2)"></path>
                    </g>
                    <path d="M47.6170265,25.9485542 C47.6170265,27.6597831 46.229653,29.0468675 44.5184241,29.0468675 C42.8073398,29.0468675 41.4202554,27.6597831 41.4202554,25.9485542 C41.4202554,24.2373253 42.8073398,22.850241 44.5184241,22.850241 C46.229653,22.850241 47.6170265,24.2373253 47.6170265,25.9485542" id="Fill-17" fill="#010201" sketch:type="MSShapeGroup"></path>
                    <path d="M29.7822217,27.515841 C23.9734988,27.515841 19.2475229,32.2418169 19.2475229,38.0503952 C19.2475229,43.8592627 23.9734988,48.5852386 29.7822217,48.5852386 C35.5913783,48.5852386 40.3170651,43.8592627 40.3170651,38.0503952 C40.3170651,32.2418169 35.5913783,27.515841 29.7822217,27.515841 M29.7822217,50.1163229 C23.1291614,50.1163229 17.7165831,44.7036 17.7165831,38.0503952 C17.7165831,31.3976241 23.1291614,25.9849012 29.7822217,25.9849012 C36.4354265,25.9849012 41.8481494,31.3976241 41.8481494,38.0503952 C41.8481494,44.7036 36.4354265,50.1163229 29.7822217,50.1163229" id="Fill-19" fill="#020302" sketch:type="MSShapeGroup"></path>
                    <path d="M29.7822217,27.515841 C23.9734988,27.515841 19.2475229,32.2418169 19.2475229,38.0503952 C19.2475229,43.8592627 23.9734988,48.5852386 29.7822217,48.5852386 C35.5913783,48.5852386 40.3170651,43.8592627 40.3170651,38.0503952 C40.3170651,32.2418169 35.5913783,27.515841 29.7822217,27.515841 M29.7822217,50.1163229 C23.1291614,50.1163229 17.7165831,44.7036 17.7165831,38.0503952 C17.7165831,31.3976241 23.1291614,25.9849012 29.7822217,25.9849012 C36.4354265,25.9849012 41.8481494,31.3976241 41.8481494,38.0503952 C41.8481494,44.7036 36.4354265,50.1163229 29.7822217,50.1163229" id="Fill-21" fill="#010201" sketch:type="MSShapeGroup"></path>
                    <path d="M23.268,56.0389157 C23.1779277,56.0389157 23.0864096,56.0234458 22.9972048,55.9894699 C17.5609157,53.9324096 13.3972048,49.5891325 11.5736386,44.073759 C11.4409157,43.6722651 11.6587952,43.2395422 12.0601446,43.1068193 C12.4616386,42.974241 12.894506,43.1918313 13.0272289,43.5931807 C14.6804819,48.5932771 18.6102651,52.692506 23.5390843,54.5577108 C23.934506,54.7070602 24.1337349,55.1488916 23.9840964,55.5443133 C23.8681446,55.8506747 23.5771084,56.0389157 23.268,56.0389157" id="Fill-23" fill="#010201" sketch:type="MSShapeGroup"></path>
                    <path d="M27.9598843,38.0142795 C27.9598843,38.8800145 27.2579566,39.5815084 26.3923663,39.5815084 C25.5266313,39.5815084 24.8247036,38.8800145 24.8247036,38.0142795 C24.8247036,37.1488337 25.5266313,36.446906 26.3923663,36.446906 C27.2579566,36.446906 27.9598843,37.1488337 27.9598843,38.0142795" id="Fill-25" fill="#010201" sketch:type="MSShapeGroup"></path>
                    <path d="M34.7399566,38.0142795 C34.7399566,38.8800145 34.0381735,39.5815084 33.1725831,39.5815084 C32.306559,39.5815084 31.6052096,38.8800145 31.6052096,38.0142795 C31.6052096,37.1488337 32.306559,36.446906 33.1725831,36.446906 C34.0381735,36.446906 34.7399566,37.1488337 34.7399566,38.0142795" id="Fill-27" fill="#010201" sketch:type="MSShapeGroup"></path>
                    <path d="M17.4252145,26.7140964 L12.5446843,26.7140964 C12.1671904,26.7140964 11.8614072,26.3714458 11.8614072,25.9485542 C11.8614072,25.5256627 12.1671904,25.183012 12.5446843,25.183012 L17.4252145,25.183012 C17.8025639,25.183012 18.1084916,25.5256627 18.1084916,25.9485542 C18.1084916,26.3714458 17.8025639,26.7140964 17.4252145,26.7140964" id="Fill-29" fill="#010201" sketch:type="MSShapeGroup"></path>
                    <g id="Group-33">
                        <mask id="mask-4" sketch:name="Clip 32" fill="white">
                            <use xlink:href="#path-3"></use>
                        </mask>
                        <g id="Clip-32"></g>
                        <path d="M29.9740916,11.476959 C14.2903807,11.476959 1.53105542,23.430694 1.53105542,38.1236096 C1.53105542,52.8168145 14.2903807,64.770694 29.9740916,64.770694 C45.6575133,64.770694 58.4168386,52.8168145 58.4168386,38.1236096 C58.4168386,23.430694 45.6575133,11.476959 29.9740916,11.476959 M29.9740916,66.3017783 C13.4463325,66.3017783 -2.89156626e-05,53.6610072 -2.89156626e-05,38.1236096 C-2.89156626e-05,22.5863566 13.4463325,9.94601928 29.9740916,9.94601928 C46.5015614,9.94601928 59.9477783,22.5863566 59.9477783,38.1236096 C59.9477783,53.6610072 46.5015614,66.3017783 29.9740916,66.3017783" id="Fill-31" fill="#010201" sketch:type="MSShapeGroup" mask="url(#mask-4)"></path>
                    </g>
                </g>
            </g>
        </g>
    </g>
</svg>